<svg xmlns="http://www.w3.org/2000/svg" viewBox="0 0 1600 1000" preserveAspectRatio="xMidYMid slice">
<defs>
  <linearGradient id="sky" x1="0" x2="0" y1="0" y2="1">
    <stop offset="0" stop-color="#111827"/>
    <stop offset="0.38" stop-color="#263348"/>
    <stop offset="0.66" stop-color="#111111"/>
    <stop offset="1" stop-color="#050505"/>
  </linearGradient>
  <linearGradient id="silver" x1="0" x2="1">
    <stop offset="0" stop-color="#fafafa" stop-opacity="0.16"/>
    <stop offset="0.5" stop-color="#d9d9d9" stop-opacity="0.46"/>
    <stop offset="1" stop-color="#ffffff" stop-opacity="0.08"/>
  </linearGradient>
  <filter id="blur"><feGaussianBlur stdDeviation="16"/></filter>
</defs>
<rect width="1600" height="1000" fill="url(#sky)"/>
<circle cx="1170" cy="180" r="130" fill="#ffffff" opacity="0.12" filter="url(#blur)"/>
<path d="M0 470 L200 250 L360 420 L535 170 L780 465 L940 300 L1100 450 L1300 230 L1600 495 L1600 1000 L0 1000 Z" fill="#050505" opacity="0.86"/>
<path d="M0 500 L230 300 L390 450 L545 220 L760 488 L948 330 L1100 480 L1310 270 L1600 520" fill="none" stroke="url(#silver)" stroke-width="5" opacity="0.7"/>
<path d="M0 520 C270 560 490 535 760 560 C1030 585 1280 535 1600 555 L1600 1000 L0 1000 Z" fill="#020202" opacity="0.68"/>
<rect x="0" y="560" width="1600" height="440" fill="#050505" opacity="0.52"/>
<path d="M0 640 C240 615 390 680 620 650 C870 618 1070 664 1300 642 C1430 630 1510 635 1600 650 L1600 1000 L0 1000 Z" fill="#0e1f26" opacity="0.78"/>
<path d="M0 705 C240 675 430 730 650 705 C900 678 1110 722 1318 704 C1450 692 1530 695 1600 708 L1600 1000 L0 1000 Z" fill="#071014" opacity="0.92"/>
<g opacity="0.8">
  <path d="M1240 400 l-32 110 h64z" fill="#020202"/><rect x="1236" y="505" width="8" height="160" fill="#020202"/>
  <path d="M1295 370 l-40 140 h80z" fill="#020202"/><rect x="1291" y="505" width="8" height="190" fill="#020202"/>
  <path d="M1355 430 l-28 95 h56z" fill="#020202"/><rect x="1351" y="520" width="8" height="140" fill="#020202"/>
</g>
<path d="M1210 700 l30 105 h-60z" fill="#020202" opacity="0.48"/>
<path d="M1255 700 l42 150 h-84z" fill="#020202" opacity="0.42"/>
<path d="M1325 700 l30 100 h-60z" fill="#020202" opacity="0.4"/>
<rect width="1600" height="1000" fill="url(#silver)" opacity="0.08"/>
</svg>
